<?xml version="1.0" encoding="utf-8"?>
<!-- Generator: Adobe Illustrator 27.6.1, SVG Export Plug-In . SVG Version: 6.00 Build 0)  -->
<svg version="1.1" id="s" xmlns="http://www.w3.org/2000/svg" xmlns:xlink="http://www.w3.org/1999/xlink" x="0px" y="0px"
	 viewBox="0 0 500 500" style="enable-background:new 0 0 500 500;" xml:space="preserve">
<style type="text/css">
	.st0{fill:#C70008;}
	.st1{fill:#E50922;}
	.st2{fill:#F81A27;}
	.st3{fill:#D7001A;}
</style>
<symbol  id="a" viewBox="-144.1 -149.7 288.1 299.4">
	<g id="b_00000069365760342146642260000003892139777750833818_">
		<polygon id="c_00000149345117059834899420000011523841959646249367_" class="st0" points="-86.4,-149.7 -144.1,-49.9 -28.8,-49.9 
			-86.4,49.9 -28.8,149.7 28.8,49.9 86.4,-49.9 144.1,-149.7 28.8,-149.7 		"/>
		<polygon id="d_00000009581317962824544700000003640013071591068802_" class="st0" points="-86.4,-149.7 -144.1,-49.9 -28.8,-49.9 
					"/>
		<polygon id="e_00000080915741670516287270000011814111763956339075_" class="st1" points="-28.8,-49.9 28.8,-149.7 -86.4,-149.7 
					"/>
		<polygon id="f_00000173141941023392640180000010900321092626961294_" class="st2" points="28.8,-149.7 -28.8,-49.9 86.4,-49.9 		
			"/>
		<polygon id="g_00000016055587202818819370000005161363501138768573_" class="st3" points="86.4,-49.9 144.1,-149.7 28.8,-149.7 		
			"/>
		<polygon id="h_00000151518090890656210180000001128242160918810554_" class="st3" points="-28.8,-49.9 -86.4,49.9 28.8,49.9 		"/>
		<polygon id="i_00000132066804832292711140000015277532846711340943_" class="st0" points="28.8,49.9 86.4,-49.9 -28.8,-49.9 		"/>
		<polygon id="j_00000126312295003213579540000006855461711854036139_" class="st2" points="-28.8,149.7 28.8,49.9 -86.4,49.9 		"/>
	</g>
</symbol>
<symbol  id="l" viewBox="-287.5 -101.5 575 203">
	<g id="m_00000134242078372107089600000000530516008778290872_">
		<polygon points="-184.1,-99.9 -198.8,-99.9 -287.5,-99.9 -287.5,-71.2 -215.4,-71.2 -287.4,53.5 -254.2,53.5 -165.6,-99.9 		"/>
		<polygon points="-184.1,-99.9 -198.8,-99.9 -287.5,-99.9 -287.5,-71.2 -215.4,-71.2 -287.4,53.5 -254.2,53.5 -165.6,-99.9 		"/>
		<polygon points="-184.1,-99.9 -198.8,-99.9 -287.5,-99.9 -287.5,-71.2 -215.4,-71.2 -287.4,53.5 -254.2,53.5 -165.6,-99.9 		"/>
	</g>
	<g id="n_00000113347210907844893050000015840492278397140362_">
		<path d="M-83.5-19.7c-4.1-3.6-9.1-6.9-14.9-9.8c-5.8-2.9-12.2-5.9-19.4-9c-3.3-1.3-6.4-2.6-9.1-3.8c-2.8-1.2-5.1-2.5-7.1-3.8
			c-2-1.3-3.5-2.9-4.5-4.8c-1.1-1.8-1.6-4-1.6-6.5c0-3.1,0.8-6,2.4-8.5c1.6-2.6,3.9-4.6,7-6.1c3-1.5,6.8-2.3,11.1-2.3
			c3.9,0,7.7,0.6,11.5,1.7c3.8,1.1,7.4,2.6,10.7,4.4c3.4,1.8,6.4,3.9,9,6.1L-76-85.6c-3.3-2.8-7.4-5.4-12.2-7.8
			c-4.8-2.4-10-4.3-15.5-5.8c-5.5-1.5-11.1-2.2-16.6-2.2c-7.3,0-14,1.2-20,3.7c-6,2.5-11.2,5.8-15.5,10c-4.3,4.2-7.7,8.9-10,14.3
			c-2.3,5.3-3.5,10.9-3.5,16.8c0,4.9,0.8,9.4,2.5,13.3c1.7,4,4,7.5,6.9,10.7s6.2,5.9,9.9,8.3s7.6,4.5,11.8,6.3
			c5.5,2.4,10.5,4.6,14.8,6.6s8,4,11,6.1c3,2.1,5.3,4.4,6.8,7s2.4,5.7,2.4,9.2c0,4-1,7.3-2.9,10.1s-4.6,4.7-7.8,6
			c-3.3,1.3-7.1,2-11.4,2c-4.6,0-9-0.6-13.1-1.9c-4.1-1.3-7.9-2.9-11.4-5c-3.5-2-6.7-4.2-9.5-6.4c-2.8-2.2-5.3-4.2-7.3-6l-15.3,24.7
			c2,1.9,4.6,4.1,8,6.6c3.4,2.5,7.4,5,12.1,7.4c4.7,2.4,10,4.4,16,5.9c6,1.5,12.4,2.3,19.5,2.3c11.1,0,20.9-1.8,29.1-5.5
			s14.8-9,19.4-15.9c4.6-6.9,7-15.3,7-25c0-6.7-1.1-12.4-3.3-17.2C-76.2-11.9-79.4-16.1-83.5-19.7L-83.5-19.7z"/>
		<path d="M-83.5-19.7c-4.1-3.6-9.1-6.9-14.9-9.8c-5.8-2.9-12.2-5.9-19.4-9c-3.3-1.3-6.4-2.6-9.1-3.8c-2.8-1.2-5.1-2.5-7.1-3.8
			c-2-1.3-3.5-2.9-4.5-4.8c-1.1-1.8-1.6-4-1.6-6.5c0-3.1,0.8-6,2.4-8.5c1.6-2.6,3.9-4.6,7-6.1c3-1.5,6.8-2.3,11.1-2.3
			c3.9,0,7.7,0.6,11.5,1.7c3.8,1.1,7.4,2.6,10.7,4.4c3.4,1.8,6.4,3.9,9,6.1L-76-85.6c-3.3-2.8-7.4-5.4-12.2-7.8
			c-4.8-2.4-10-4.3-15.5-5.8c-5.5-1.5-11.1-2.2-16.6-2.2c-7.3,0-14,1.2-20,3.7c-6,2.5-11.2,5.8-15.5,10c-4.3,4.2-7.7,8.9-10,14.3
			c-2.3,5.3-3.5,10.9-3.5,16.8c0,4.9,0.8,9.4,2.5,13.3c1.7,4,4,7.5,6.9,10.7s6.2,5.9,9.9,8.3s7.6,4.5,11.8,6.3
			c5.5,2.4,10.5,4.6,14.8,6.6s8,4,11,6.1c3,2.1,5.3,4.4,6.8,7s2.4,5.7,2.4,9.2c0,4-1,7.3-2.9,10.1s-4.6,4.7-7.8,6
			c-3.3,1.3-7.1,2-11.4,2c-4.6,0-9-0.6-13.1-1.9c-4.1-1.3-7.9-2.9-11.4-5c-3.5-2-6.7-4.2-9.5-6.4c-2.8-2.2-5.3-4.2-7.3-6l-15.3,24.7
			c2,1.9,4.6,4.1,8,6.6c3.4,2.5,7.4,5,12.1,7.4c4.7,2.4,10,4.4,16,5.9c6,1.5,12.4,2.3,19.5,2.3c11.1,0,20.9-1.8,29.1-5.5
			s14.8-9,19.4-15.9c4.6-6.9,7-15.3,7-25c0-6.7-1.1-12.4-3.3-17.2C-76.2-11.9-79.4-16.1-83.5-19.7L-83.5-19.7z"/>
		<path d="M-83.5-19.7c-4.1-3.6-9.1-6.9-14.9-9.8c-5.8-2.9-12.2-5.9-19.4-9c-3.3-1.3-6.4-2.6-9.1-3.8c-2.8-1.2-5.1-2.5-7.1-3.8
			c-2-1.3-3.5-2.9-4.5-4.8c-1.1-1.8-1.6-4-1.6-6.5c0-3.1,0.8-6,2.4-8.5c1.6-2.6,3.9-4.6,7-6.1c3-1.5,6.8-2.3,11.1-2.3
			c3.9,0,7.7,0.6,11.5,1.7c3.8,1.1,7.4,2.6,10.7,4.4c3.4,1.8,6.4,3.9,9,6.1L-76-85.6c-3.3-2.8-7.4-5.4-12.2-7.8
			c-4.8-2.4-10-4.3-15.5-5.8c-5.5-1.5-11.1-2.2-16.6-2.2c-7.3,0-14,1.2-20,3.7c-6,2.5-11.2,5.8-15.5,10c-4.3,4.2-7.7,8.9-10,14.3
			c-2.3,5.3-3.5,10.9-3.5,16.8c0,4.9,0.8,9.4,2.5,13.3c1.7,4,4,7.5,6.9,10.7s6.2,5.9,9.9,8.3s7.6,4.5,11.8,6.3
			c5.5,2.4,10.5,4.6,14.8,6.6s8,4,11,6.1c3,2.1,5.3,4.4,6.8,7s2.4,5.7,2.4,9.2c0,4-1,7.3-2.9,10.1s-4.6,4.7-7.8,6
			c-3.3,1.3-7.1,2-11.4,2c-4.6,0-9-0.6-13.1-1.9c-4.1-1.3-7.9-2.9-11.4-5c-3.5-2-6.7-4.2-9.5-6.4c-2.8-2.2-5.3-4.2-7.3-6l-15.3,24.7
			c2,1.9,4.6,4.1,8,6.6c3.4,2.5,7.4,5,12.1,7.4c4.7,2.4,10,4.4,16,5.9c6,1.5,12.4,2.3,19.5,2.3c11.1,0,20.9-1.8,29.1-5.5
			s14.8-9,19.4-15.9c4.6-6.9,7-15.3,7-25c0-6.7-1.1-12.4-3.3-17.2C-76.2-11.9-79.4-16.1-83.5-19.7L-83.5-19.7z"/>
	</g>
	<g id="o_00000000944933626280135630000011557110612549434782_">
		<path d="M28-37.4c-7.1-4.4-15.2-6.5-24.2-6.5c-6.6,0-12.7,1.3-18.4,3.8C-20.3-37.6-25-34-28.8-29.4V-41h-28.4v142.5h28.4V41.1
			c4.2,4.9,9.2,8.7,14.9,11.4s11.8,4,18.3,4c8.9,0,16.8-2.2,23.8-6.6c7-4.4,12.5-10.4,16.6-17.9c4.1-7.6,6.1-16.1,6.1-25.7
			s-2-18.2-6.1-25.7C40.7-27,35.1-33,28-37.4L28-37.4z M17.9,19.8c-2.1,3.9-5.1,7-9,9.2c-3.8,2.2-8.2,3.3-13.1,3.3s-9.2-1.1-13-3.3
			c-3.8-2.2-6.8-5.3-9-9.2c-2.2-3.9-3.3-8.4-3.3-13.5s1.1-9.6,3.3-13.5c2.2-3.9,5.2-7,9-9.3c3.8-2.3,8.2-3.4,13-3.4
			s9.2,1.1,12.9,3.4c3.8,2.3,6.7,5.4,9,9.3c2.2,3.9,3.3,8.4,3.3,13.5S20,15.9,17.9,19.8z"/>
		<path d="M28-37.4c-7.1-4.4-15.2-6.5-24.2-6.5c-6.6,0-12.7,1.3-18.4,3.8C-20.3-37.6-25-34-28.8-29.4V-41h-28.4v142.5h28.4V41.1
			c4.2,4.9,9.2,8.7,14.9,11.4s11.8,4,18.3,4c8.9,0,16.8-2.2,23.8-6.6c7-4.4,12.5-10.4,16.6-17.9c4.1-7.6,6.1-16.1,6.1-25.7
			s-2-18.2-6.1-25.7C40.7-27,35.1-33,28-37.4L28-37.4z M17.9,19.8c-2.1,3.9-5.1,7-9,9.2c-3.8,2.2-8.2,3.3-13.1,3.3s-9.2-1.1-13-3.3
			c-3.8-2.2-6.8-5.3-9-9.2c-2.2-3.9-3.3-8.4-3.3-13.5s1.1-9.6,3.3-13.5c2.2-3.9,5.2-7,9-9.3c3.8-2.3,8.2-3.4,13-3.4
			s9.2,1.1,12.9,3.4c3.8,2.3,6.7,5.4,9,9.3c2.2,3.9,3.3,8.4,3.3,13.5S20,15.9,17.9,19.8z"/>
		<path d="M28-37.4c-7.1-4.4-15.2-6.5-24.2-6.5c-6.6,0-12.7,1.3-18.4,3.8C-20.3-37.6-25-34-28.8-29.4V-41h-28.4v142.5h28.4V41.1
			c4.2,4.9,9.2,8.7,14.9,11.4s11.8,4,18.3,4c8.9,0,16.8-2.2,23.8-6.6c7-4.4,12.5-10.4,16.6-17.9c4.1-7.6,6.1-16.1,6.1-25.7
			s-2-18.2-6.1-25.7C40.7-27,35.1-33,28-37.4L28-37.4z M17.9,19.8c-2.1,3.9-5.1,7-9,9.2c-3.8,2.2-8.2,3.3-13.1,3.3s-9.2-1.1-13-3.3
			c-3.8-2.2-6.8-5.3-9-9.2c-2.2-3.9-3.3-8.4-3.3-13.5s1.1-9.6,3.3-13.5c2.2-3.9,5.2-7,9-9.3c3.8-2.3,8.2-3.4,13-3.4
			s9.2,1.1,12.9,3.4c3.8,2.3,6.7,5.4,9,9.3c2.2,3.9,3.3,8.4,3.3,13.5S20,15.9,17.9,19.8z"/>
	</g>
	<g id="p_00000037675318478864160230000012073557987411699641_">
		<path d="M143.9-29.4c-3.7-4.6-8.4-8.1-14.2-10.7c-5.8-2.5-12.1-3.8-18.8-3.8c-9,0-17.1,2.2-24.1,6.6S74.2-27,70.1-19.4
			c-4,7.5-6,16.1-6,25.6s2.1,18.3,6.2,25.9c4.1,7.6,9.8,13.6,16.9,17.9s15,6.5,23.7,6.5c6.5,0,12.6-1.3,18.2-4
			c5.6-2.7,10.5-6.5,14.9-11.4v12.5h28.3V-41h-28.3L143.9-29.4L143.9-29.4z M141.2,19.7c-2.2,3.9-5.2,7-9,9.3
			c-3.8,2.2-8.1,3.4-13,3.4s-9.2-1.1-13-3.4s-6.9-5.4-9-9.3c-2.2-3.9-3.3-8.4-3.3-13.4S95-3.3,97.2-7.2c2.2-3.9,5.2-7,9-9.3
			c3.8-2.2,8.1-3.4,13-3.4s9.3,1.1,13,3.4s6.8,5.3,9,9.3c2.2,3.9,3.3,8.4,3.3,13.5S143.5,15.8,141.2,19.7L141.2,19.7z"/>
		<path d="M143.9-29.4c-3.7-4.6-8.4-8.1-14.2-10.7c-5.8-2.5-12.1-3.8-18.8-3.8c-9,0-17.1,2.2-24.1,6.6S74.2-27,70.1-19.4
			c-4,7.5-6,16.1-6,25.6s2.1,18.3,6.2,25.9c4.1,7.6,9.8,13.6,16.9,17.9s15,6.5,23.7,6.5c6.5,0,12.6-1.3,18.2-4
			c5.6-2.7,10.5-6.5,14.9-11.4v12.5h28.3V-41h-28.3L143.9-29.4L143.9-29.4z M141.2,19.7c-2.2,3.9-5.2,7-9,9.3
			c-3.8,2.2-8.1,3.4-13,3.4s-9.2-1.1-13-3.4s-6.9-5.4-9-9.3c-2.2-3.9-3.3-8.4-3.3-13.4S95-3.3,97.2-7.2c2.2-3.9,5.2-7,9-9.3
			c3.8-2.2,8.1-3.4,13-3.4s9.3,1.1,13,3.4s6.8,5.3,9,9.3c2.2,3.9,3.3,8.4,3.3,13.5S143.5,15.8,141.2,19.7L141.2,19.7z"/>
		<path d="M143.9-29.4c-3.7-4.6-8.4-8.1-14.2-10.7c-5.8-2.5-12.1-3.8-18.8-3.8c-9,0-17.1,2.2-24.1,6.6S74.2-27,70.1-19.4
			c-4,7.5-6,16.1-6,25.6s2.1,18.3,6.2,25.9c4.1,7.6,9.8,13.6,16.9,17.9s15,6.5,23.7,6.5c6.5,0,12.6-1.3,18.2-4
			c5.6-2.7,10.5-6.5,14.9-11.4v12.5h28.3V-41h-28.3L143.9-29.4L143.9-29.4z M141.2,19.7c-2.2,3.9-5.2,7-9,9.3
			c-3.8,2.2-8.1,3.4-13,3.4s-9.2-1.1-13-3.4s-6.9-5.4-9-9.3c-2.2-3.9-3.3-8.4-3.3-13.4S95-3.3,97.2-7.2c2.2-3.9,5.2-7,9-9.3
			c3.8-2.2,8.1-3.4,13-3.4s9.3,1.1,13,3.4s6.8,5.3,9,9.3c2.2,3.9,3.3,8.4,3.3,13.5S143.5,15.8,141.2,19.7L141.2,19.7z"/>
	</g>
	<g id="q_00000072988545277763232720000008776392384246871962_">
		<path d="M282.8-26c-3.1-5.7-7.5-10.1-13-13.2c-5.5-3.1-11.9-4.7-19.1-4.7c-6.6,0-12.6,1.2-18.1,3.7c-5.5,2.5-10,5.7-13.6,9.6V-41
			h-28.4v94.5H219V-2.4c0-3.7,0.8-7,2.5-9.9s4-5.2,7-6.9c3-1.7,6.6-2.5,10.8-2.5c6.2,0,11,1.9,14.5,5.7c3.5,3.8,5.3,9.1,5.3,15.8
			v53.8h28.3V-6.3C287.5-13.8,285.9-20.4,282.8-26L282.8-26z"/>
		<path d="M282.8-26c-3.1-5.7-7.5-10.1-13-13.2c-5.5-3.1-11.9-4.7-19.1-4.7c-6.6,0-12.6,1.2-18.1,3.7c-5.5,2.5-10,5.7-13.6,9.6V-41
			h-28.4v94.5H219V-2.4c0-3.7,0.8-7,2.5-9.9s4-5.2,7-6.9c3-1.7,6.6-2.5,10.8-2.5c6.2,0,11,1.9,14.5,5.7c3.5,3.8,5.3,9.1,5.3,15.8
			v53.8h28.3V-6.3C287.5-13.8,285.9-20.4,282.8-26L282.8-26z"/>
		<path d="M282.8-26c-3.1-5.7-7.5-10.1-13-13.2c-5.5-3.1-11.9-4.7-19.1-4.7c-6.6,0-12.6,1.2-18.1,3.7c-5.5,2.5-10,5.7-13.6,9.6V-41
			h-28.4v94.5H219V-2.4c0-3.7,0.8-7,2.5-9.9s4-5.2,7-6.9c3-1.7,6.6-2.5,10.8-2.5c6.2,0,11,1.9,14.5,5.7c3.5,3.8,5.3,9.1,5.3,15.8
			v53.8h28.3V-6.3C287.5-13.8,285.9-20.4,282.8-26L282.8-26z"/>
	</g>
</symbol>
<use xlink:href="#a"  width="288.1" height="299.4" x="-144.1" y="-149.7" transform="matrix(1.1381 0 0 1.1381 245 266.4588)" style="overflow:visible;"/>
</svg>
