<svg width="100" height="100" viewBox="0 0 100 100" fill="none" xmlns="http://www.w3.org/2000/svg">
<rect width="100" height="100" rx="4" fill="#F4F4F5"/>
<g clip-path="url(#clip0_1350_7806)">
<rect x="26" y="26" width="48" height="48" rx="4" fill="#F4F4F5"/>
<path d="M43 41C42.4696 41 41.9609 41.2107 41.5858 41.5858C41.2107 41.9609 41 42.4696 41 43V57C41 57.5304 41.2107 58.0391 41.5858 58.4142C41.9609 58.7893 42.4696 59 43 59H52.09C52.03 58.67 52 58.34 52 58C52 57.32 52.12 56.64 52.35 56H43L46.5 51.5L49 54.5L52.5 50L54.73 52.97C55.7 52.34 56.84 52 58 52C58.34 52 58.67 52.03 59 52.09V43C59 42.4696 58.7893 41.9609 58.4142 41.5858C58.0391 41.2107 57.5304 41 57 41H43ZM57 54V57H54V59H57V62H59V59H62V57H59V54H57Z" fill="#A1A1AA"/>
</g>
<defs>
<clipPath id="clip0_1350_7806">
<rect width="48" height="48" fill="white" transform="translate(26 26)"/>
</clipPath>
</defs>
</svg>
